<svg xmlns="http://www.w3.org/2000/svg" width="24" height="20" viewBox="0 0 24 21" class="maiar-symbol"><defs><style>
      .cls-maiar-extension-1 {
        fill: #12062b;
      }

      .cls-maiar-extension-2 {
        fill: #fff;
      }
    </style></defs><g transform="translate(11024 -18800.5)"><path class="cls-maiar-extension-1" d="M21.619-15H3.75A.75.75,0,0,1,3-15.75a.75.75,0,0,1,.75-.75h18a.75.75,0,0,0,.75-.75,2.25,2.25,0,0,0-2.25-2.25H3a3,3,0,0,0-3,3v15a3,3,0,0,0,3,3H21.619A2.321,2.321,0,0,0,24-.75v-12A2.321,2.321,0,0,0,21.619-15Z" transform="translate(-11024 18820)"></path><g transform="translate(-11017.25 18809.002)"><g transform="translate(0 0)"><path class="cls-maiar-extension-2" d="M2.13,6.377l.007-.009L0,8.5V0L4.249,4.254,8.5,0V8.5L6.375,6.377,4.25,8.5Z" transform="translate(0 0)"></path></g></g><circle class="cls-maiar-extension-2" cx="1.314" cy="1.314" r="1.314" transform="translate(-11004.771 18812.314)"></circle></g>
  </svg>