<?xml version="1.0" encoding="utf-8"?>
<!-- Generator: Adobe Illustrator 26.0.3, SVG Export Plug-In . SVG Version: 6.00 Build 0)  -->
<svg version="1.1" id="Layer_1" xmlns="http://www.w3.org/2000/svg" xmlns:xlink="http://www.w3.org/1999/xlink" x="0px" y="0px"
	 viewBox="0 0 21.3 20" style="enable-background:new 0 0 21.3 20;" xml:space="preserve">
<style type="text/css">
	.st0{fill:#12062b;}
</style>
<path class="st0" d="M17.5,0H8.6v12h12V3.1C20.6,1.4,19.2,0,17.5,0C17.5,0,17.5,0,17.5,0L17.5,0z"/>
<path class="st0" d="M5.8,0H4.3C2.6,0,1.1,1.4,1.1,3.1v1.5h4.6V0z"/>
<path class="st0" d="M1.1,7.5h4.6v4.7H1.1V7.5z"/>
<path class="st0" d="M16,19.5h1.5c1.7,0,3.1-1.4,3.1-3.1c0,0,0,0,0,0v-1.5H16V19.5z"/>
<path class="st0" d="M8.6,14.9h4.6v4.7H8.6V14.9z"/>
<path class="st0" d="M1.1,14.9v1.5c0,1.7,1.4,3.1,3.1,3.1h1.5v-4.7H1.1z"/>
</svg>
